<!--?xml version="1.0" encoding="UTF-8" standalone="no"?-->
<!-- Generated by graphviz version 2.40.1 (20161225.0304)
 -->
<!-- Title: G Pages: 1 -->
<svg viewBox="0.00 0.00 1167.48 818.20" xmlns="http://www.w3.org/2000/svg" xmlns:xlink="http://www.w3.org/1999/xlink" style="width: 100%; height: 100%;">
<g id="graph0" class="graph" transform="scale(1 1) rotate(0) translate(4 814.2)">
<title>G</title>
<polygon fill="#ffffff" stroke="transparent" points="-4,4 -4,-814.2 1163.4785,-814.2 1163.4785,4 -4,4"></polygon>
<!-- free_text_1 -->
<g id="node1" class="node">
<title>free_text_1</title>
<polygon fill="none" stroke="#000000" points="270.7844,-810.2 5.429,-810.2 5.429,-774.2 270.7844,-774.2 270.7844,-810.2"></polygon>
<text text-anchor="middle" x="138.1067" y="-788" font-family="Times,serif" font-size="14.00" fill="#000000">Get free text response describing occupation</text>
</g>
<!-- generate_suggestions -->
<g id="node2" class="node">
<title>generate_suggestions</title>
<polygon fill="none" stroke="#000000" points="232.311,-737.0019 43.9024,-737.0019 43.9024,-695.7981 232.311,-695.7981 232.311,-737.0019"></polygon>
<text text-anchor="middle" x="138.1067" y="-720.6" font-family="Times,serif" font-size="14.00" fill="#000000">Generate a list of suggestions</text>
<text text-anchor="middle" x="138.1067" y="-703.8" font-family="Times,serif" font-size="14.00" fill="#000000">based on the free text response</text>
</g>
<!-- free_text_1&#45;&gt;generate_suggestions -->
<g id="edge1" class="edge">
<title>free_text_1-&gt;generate_suggestions</title>
<path fill="none" stroke="#000000" d="M138.1067,-773.8509C138.1067,-765.915 138.1067,-756.4041 138.1067,-747.4258"></path>
<polygon fill="#000000" stroke="#000000" points="141.6068,-747.2568 138.1067,-737.2568 134.6068,-747.2569 141.6068,-747.2568"></polygon>
</g>
<!-- check_generate_suggestions -->
<g id="node4" class="node">
<title>check_generate_suggestions</title>
<polygon fill="none" stroke="#000000" points="336.1067,-658.7002 183.4177,-617 336.1067,-575.2998 488.7957,-617 336.1067,-658.7002"></polygon>
<text text-anchor="middle" x="336.1067" y="-621.2" font-family="Times,serif" font-size="14.00" fill="#000000">Was it possible</text>
<text text-anchor="middle" x="336.1067" y="-604.4" font-family="Times,serif" font-size="14.00" fill="#000000">to generate suggestions?</text>
</g>
<!-- generate_suggestions&#45;&gt;check_generate_suggestions -->
<g id="edge2" class="edge">
<title>generate_suggestions-&gt;check_generate_suggestions</title>
<path fill="none" stroke="#000000" d="M179.614,-695.5625C206.6418,-681.994 242.4185,-664.0334 272.9416,-648.7101"></path>
<polygon fill="#000000" stroke="#000000" points="274.8634,-651.6617 282.2302,-644.0471 271.7228,-645.4058 274.8634,-651.6617"></polygon>
</g>
<!-- free_text_2 -->
<g id="node3" class="node">
<title>free_text_2</title>
<polygon fill="none" stroke="#000000" points="284.3202,-363 -.1068,-363 -.1068,-327 284.3202,-327 284.3202,-363"></polygon>
<text text-anchor="middle" x="142.1067" y="-340.8" font-family="Times,serif" font-size="14.00" fill="#000000">Ask again for a more detailed free text response</text>
</g>
<!-- free_text_2&#45;&gt;generate_suggestions -->
<g id="edge4" class="edge">
<title>free_text_2-&gt;generate_suggestions</title>
<path fill="none" stroke="#000000" d="M141.911,-363.1727C141.2723,-422.4739 139.244,-610.8059 138.4398,-685.4732"></path>
<polygon fill="#000000" stroke="#000000" points="134.9383,-685.599 138.3303,-695.6361 141.9379,-685.6744 134.9383,-685.599"></polygon>
</g>
<!-- check_suggestions -->
<g id="node5" class="node">
<title>check_suggestions</title>
<polygon fill="none" stroke="#000000" points="336.1067,-522.7002 153.7986,-481 336.1067,-439.2998 518.4148,-481 336.1067,-522.7002"></polygon>
<text text-anchor="middle" x="336.1067" y="-485.2" font-family="Times,serif" font-size="14.00" fill="#000000">Are we trying to generate</text>
<text text-anchor="middle" x="336.1067" y="-468.4" font-family="Times,serif" font-size="14.00" fill="#000000">suggestions for the first time?</text>
</g>
<!-- check_generate_suggestions&#45;&gt;check_suggestions -->
<g id="edge6" class="edge">
<title>check_generate_suggestions-&gt;check_suggestions</title>
<path fill="none" stroke="#000000" stroke-dasharray="5,2" d="M336.1067,-575.0858C336.1067,-561.9007 336.1067,-547.1735 336.1067,-533.3571"></path>
<polygon fill="#000000" stroke="#000000" points="339.6068,-533.0099 336.1067,-523.0099 332.6068,-533.0099 339.6068,-533.0099"></polygon>
<text text-anchor="middle" x="344.66" y="-544.8" font-family="Times,serif" font-size="14.00" fill="#000000">No</text>
</g>
<!-- pick_suggestion -->
<g id="node6" class="node">
<title>pick_suggestion</title>
<polygon fill="none" stroke="#000000" points="815.8236,-501.6019 536.3898,-501.6019 536.3898,-460.3981 815.8236,-460.3981 815.8236,-501.6019"></polygon>
<text text-anchor="middle" x="676.1067" y="-485.2" font-family="Times,serif" font-size="14.00" fill="#000000">The participant picks a suggestion from the list</text>
<text text-anchor="middle" x="676.1067" y="-468.4" font-family="Times,serif" font-size="14.00" fill="#000000">(or indicates that none of them match).</text>
</g>
<!-- check_generate_suggestions&#45;&gt;pick_suggestion -->
<g id="edge5" class="edge">
<title>check_generate_suggestions-&gt;pick_suggestion</title>
<path fill="none" stroke="#000000" stroke-dasharray="5,2" d="M398.0726,-592.2136C459.7068,-567.56 553.6907,-529.9664 615.0163,-505.4362"></path>
<polygon fill="#000000" stroke="#000000" points="616.5834,-508.579 624.5683,-501.6153 613.9837,-502.0796 616.5834,-508.579"></polygon>
<text text-anchor="middle" x="537.9896" y="-544.8" font-family="Times,serif" font-size="14.00" fill="#000000">Yes</text>
</g>
<!-- check_suggestions&#45;&gt;free_text_2 -->
<g id="edge3" class="edge">
<title>check_suggestions-&gt;free_text_2</title>
<path fill="none" stroke="#000000" stroke-dasharray="5,2" d="M291.1116,-449.457C256.1204,-424.9271 208.3105,-391.4109 176.3796,-369.0263"></path>
<polygon fill="#000000" stroke="#000000" points="178.0158,-365.899 167.8183,-363.0246 173.9976,-371.6309 178.0158,-365.899"></polygon>
<text text-anchor="middle" x="273.4675" y="-408.8" font-family="Times,serif" font-size="14.00" fill="#000000">1st time</text>
</g>
<!-- free_text_manual -->
<g id="node8" class="node">
<title>free_text_manual</title>
<ellipse fill="none" stroke="#000000" cx="336.1067" cy="-209" rx="160.6586" ry="29.3315"></ellipse>
<text text-anchor="middle" x="336.1067" y="-213.2" font-family="Times,serif" font-size="14.00" fill="#000000">Ask for final free text response</text>
<text text-anchor="middle" x="336.1067" y="-196.4" font-family="Times,serif" font-size="14.00" fill="#000000">for later manual coding of occupation</text>
</g>
<!-- check_suggestions&#45;&gt;free_text_manual -->
<g id="edge9" class="edge">
<title>check_suggestions-&gt;free_text_manual</title>
<path fill="none" stroke="#000000" stroke-dasharray="5,2" d="M336.1067,-439.393C336.1067,-387.5697 336.1067,-299.6635 336.1067,-248.7299"></path>
<polygon fill="#000000" stroke="#000000" points="339.6068,-248.4486 336.1067,-238.4487 332.6068,-248.4487 339.6068,-248.4486"></polygon>
<text text-anchor="middle" x="360.7999" y="-340.8" font-family="Times,serif" font-size="14.00" fill="#000000">2nd time</text>
</g>
<!-- check_pick_suggestions -->
<g id="node7" class="node">
<title>check_pick_suggestions</title>
<polygon fill="none" stroke="#000000" points="676.1067,-386.7002 527.4579,-345 676.1067,-303.2998 824.7555,-345 676.1067,-386.7002"></polygon>
<text text-anchor="middle" x="676.1067" y="-349.2" font-family="Times,serif" font-size="14.00" fill="#000000">Did the participant pick</text>
<text text-anchor="middle" x="676.1067" y="-332.4" font-family="Times,serif" font-size="14.00" fill="#000000">one of the suggestions?</text>
</g>
<!-- pick_suggestion&#45;&gt;check_pick_suggestions -->
<g id="edge7" class="edge">
<title>pick_suggestion-&gt;check_pick_suggestions</title>
<path fill="none" stroke="#000000" d="M676.1067,-460.3445C676.1067,-443.5376 676.1067,-419.0704 676.1067,-396.9908"></path>
<polygon fill="#000000" stroke="#000000" points="679.6068,-396.72 676.1067,-386.72 672.6068,-396.7201 679.6068,-396.72"></polygon>
</g>
<!-- check_pick_suggestions&#45;&gt;free_text_manual -->
<g id="edge8" class="edge">
<title>check_pick_suggestions-&gt;free_text_manual</title>
<path fill="none" stroke="#000000" stroke-dasharray="5,2" d="M614.5353,-320.3714C557.8615,-297.7019 473.5943,-263.995 412.6174,-239.6043"></path>
<polygon fill="#000000" stroke="#000000" points="413.6235,-236.2371 403.0388,-235.7728 411.0237,-242.7365 413.6235,-236.2371"></polygon>
<text text-anchor="middle" x="574.5331" y="-272.8" font-family="Times,serif" font-size="14.00" fill="#000000">No (none match)</text>
</g>
<!-- check_followup_questions -->
<g id="node9" class="node">
<title>check_followup_questions</title>
<polygon fill="none" stroke="#000000" points="837.1067,-250.7002 514.863,-209 837.1067,-167.2998 1159.3504,-209 837.1067,-250.7002"></polygon>
<text text-anchor="middle" x="837.1067" y="-213.2" font-family="Times,serif" font-size="14.00" fill="#000000">Does this suggestion have followup questions?</text>
<text text-anchor="middle" x="837.1067" y="-196.4" font-family="Times,serif" font-size="14.00" fill="#000000">(Only applies when using the Auxiliary Classification)</text>
</g>
<!-- check_pick_suggestions&#45;&gt;check_followup_questions -->
<g id="edge10" class="edge">
<title>check_pick_suggestions-&gt;check_followup_questions</title>
<path fill="none" stroke="#000000" stroke-dasharray="5,2" d="M713.448,-313.457C735.1472,-295.1273 762.7863,-271.78 786.4285,-251.8089"></path>
<polygon fill="#000000" stroke="#000000" points="788.8981,-254.3044 794.2788,-245.1776 784.3809,-248.9569 788.8981,-254.3044"></polygon>
<text text-anchor="middle" x="776.9896" y="-272.8" font-family="Times,serif" font-size="14.00" fill="#000000">Yes</text>
</g>
<!-- coding_finished -->
<g id="node10" class="node">
<title>coding_finished</title>
<ellipse fill="none" stroke="#000000" cx="796.1067" cy="-18" rx="91.5176" ry="18"></ellipse>
<text text-anchor="middle" x="796.1067" y="-13.8" font-family="Times,serif" font-size="14.00" fill="#000000">✅ Coding is finished</text>
</g>
<!-- check_followup_questions&#45;&gt;coding_finished -->
<g id="edge11" class="edge">
<title>check_followup_questions-&gt;coding_finished</title>
<path fill="none" stroke="#000000" stroke-dasharray="5,2" d="M814.1738,-169.9507C805.7477,-153.4532 797.2358,-133.672 793.0001,-114.6 787.9661,-91.9336 789.2818,-65.5473 791.5536,-46.0848"></path>
<polygon fill="#000000" stroke="#000000" points="795.039,-46.4248 792.8798,-36.0523 788.0994,-45.5073 795.039,-46.4248"></polygon>
<text text-anchor="middle" x="800.66" y="-89.6" font-family="Times,serif" font-size="14.00" fill="#000000">No</text>
</g>
<!-- next_followup_question -->
<g id="node11" class="node">
<title>next_followup_question</title>
<polygon fill="none" stroke="#000000" points="1108.8446,-114.4019 819.3688,-114.4019 819.3688,-73.1981 1108.8446,-73.1981 1108.8446,-114.4019"></polygon>
<text text-anchor="middle" x="964.1067" y="-98" font-family="Times,serif" font-size="14.00" fill="#000000">Ask up to 2 followup questions to the participant</text>
<text text-anchor="middle" x="964.1067" y="-81.2" font-family="Times,serif" font-size="14.00" fill="#000000">to clarify the classification</text>
</g>
<!-- check_followup_questions&#45;&gt;next_followup_question -->
<g id="edge12" class="edge">
<title>check_followup_questions-&gt;next_followup_question</title>
<path fill="none" stroke="#000000" stroke-dasharray="5,2" d="M877.6395,-172.2333C895.7309,-155.8228 916.6969,-136.8048 933.4526,-121.6059"></path>
<polygon fill="#000000" stroke="#000000" points="936.2536,-123.7906 941.3089,-114.4796 931.5505,-118.6059 936.2536,-123.7906"></polygon>
<text text-anchor="middle" x="929.9896" y="-136.8" font-family="Times,serif" font-size="14.00" fill="#000000">Yes</text>
</g>
<!-- next_followup_question&#45;&gt;coding_finished -->
<g id="edge13" class="edge">
<title>next_followup_question-&gt;coding_finished</title>
<path fill="none" stroke="#000000" d="M918.2,-73.0873C894.5283,-62.4069 865.7362,-49.4162 842.0581,-38.7328"></path>
<polygon fill="#000000" stroke="#000000" points="843.4777,-35.5336 832.9231,-34.6112 840.5988,-41.9142 843.4777,-35.5336"></polygon>
</g>
</g>
</svg>